<svg aria-hidden="true" style="position: absolute; width: 0; height: 0; overflow: hidden;" version="1.1" xmlns="http://www.w3.org/2000/svg" xmlns:xlink="http://www.w3.org/1999/xlink">
<defs>
<symbol id="icon-fb-sq" viewBox="0 0 32 32">
<path d="M16.050 0.313c4.644 0 9.287 0 13.931 0 1.2 0 1.956 0.75 1.956 1.944 0 9.206 0 18.413 0 27.619 0 1.175-0.756 1.938-1.925 1.938-9.3 0-18.6 0-27.9 0-1.156 0-1.925-0.762-1.925-1.913 0-9.225 0-18.45 0-27.681 0-1.15 0.769-1.906 1.925-1.906 4.644 0 9.294 0 13.938 0zM16.063 30.938c4.625 0 9.25 0 13.875 0 0.769 0 1.125-0.356 1.125-1.125 0-9.169 0-18.331 0-27.5 0-0.769-0.356-1.125-1.125-1.125-9.25 0-18.5 0-27.75 0-0.769 0-1.125 0.356-1.125 1.125 0 9.169 0 18.331 0 27.5 0 0.769 0.356 1.125 1.125 1.125 4.625 0 9.25 0 13.875 0z"></path>
<path d="M18.119 16.050c0 4.069 0 8.075 0 12.125-0.125 0.006-0.231 0.025-0.344 0.025-1.606 0-3.206-0.006-4.813 0.006-0.3 0-0.356-0.1-0.356-0.375 0.006-3.781 0.006-7.563 0.006-11.344 0-0.131 0-0.262 0-0.425-0.9 0-1.762 0-2.65 0 0-1.369 0-2.719 0-4.1 0.875 0 1.744 0 2.65 0 0-0.15 0-0.262 0-0.375 0-1.050-0.012-2.106 0.006-3.156 0.019-1.369 0.463-2.55 1.581-3.412 0.787-0.606 1.713-0.95 2.681-1 1.738-0.087 3.475-0.081 5.213-0.112 0.15 0 0.238 0.038 0.231 0.206-0.006 1.325-0.006 2.644-0.012 3.969 0 0.019-0.012 0.037-0.044 0.1-0.094 0-0.2 0-0.313 0-0.856 0-1.706 0-2.563 0-0.775 0.006-1.262 0.5-1.262 1.262 0 0.819 0 1.644 0 2.5 1.4 0 2.769 0 4.219 0-0.175 1.394-0.344 2.737-0.519 4.112-1.25-0.006-2.462-0.006-3.712-0.006z"></path>
</symbol>
<symbol id="icon-twitter-sq" viewBox="0 0 32 32">
<path d="M16.075 31.813c-4.644 0-9.287 0-13.931 0-1.2 0-1.956-0.75-1.956-1.944 0-9.206 0-18.413 0-27.619 0-1.175 0.756-1.938 1.925-1.938 9.3 0 18.6 0 27.9 0 1.156 0 1.925 0.762 1.925 1.913 0 9.225 0 18.456 0 27.681 0 1.144-0.769 1.906-1.925 1.906-4.644 0-9.294 0-13.938 0zM16.038 30.938c4.637 0 9.269 0 13.906 0 0.762 0 1.119-0.363 1.119-1.131 0-9.169 0-18.331 0-27.5 0-0.762-0.363-1.119-1.131-1.119-9.25 0-18.5 0-27.75 0-0.762 0-1.119 0.356-1.119 1.131 0 9.169 0 18.331 0 27.5 0 0.762 0.356 1.119 1.131 1.119 4.612 0 9.225 0 13.844 0z"></path>
<path d="M5.975 19.469c0.794 0 1.537 0 2.281 0 0.006-0.031 0.019-0.069 0.025-0.1-2.631-0.831-4.069-2.587-4.256-5.338 0.813 0.225 1.581 0.444 2.35 0.656 0.013-0.031 0.025-0.063 0.037-0.094-2.375-2.006-2.944-4.406-1.612-7.294 2.994 3.506 6.706 5.419 11.275 5.737-0.031-0.244-0.056-0.438-0.081-0.631-0.469-3.869 3.281-6.994 7-5.856 0.875 0.269 1.631 0.719 2.288 1.35 0.075 0.075 0.238 0.119 0.35 0.094 1.025-0.213 1.994-0.588 2.913-1.081 0.081-0.044 0.163-0.081 0.3-0.15-0.175 0.662-0.475 1.194-0.869 1.65s-0.856 0.856-1.294 1.287c0.975-0.113 1.919-0.394 2.844-0.769 0.019 0.025 0.044 0.050 0.063 0.075-0.444 0.512-0.869 1.050-1.337 1.537-0.356 0.375-0.788 0.681-1.169 1.031-0.087 0.081-0.163 0.225-0.156 0.338 0.056 3.225-0.781 6.2-2.481 8.925-1.806 2.887-4.294 4.988-7.506 6.169-2.581 0.95-5.244 1.194-7.963 0.775-2.037-0.313-3.944-1.006-5.7-2.1-0.044-0.025-0.081-0.056-0.119-0.119 1.413 0.125 2.8-0.006 4.156-0.394 1.35-0.381 2.581-1.006 3.744-1.913-1.444-0.087-2.656-0.569-3.656-1.531-0.644-0.606-1.119-1.331-1.425-2.256z"></path>
</symbol>
<symbol id="icon-instagram-sq" viewBox="0 0 32 32">
<path d="M16.031 31.813c-4.625 0-9.25 0-13.869 0-1.225 0-1.975-0.744-1.975-1.956 0-9.2 0-18.394 0-27.587 0-1.2 0.75-1.956 1.944-1.956 9.287 0 18.575 0 27.869 0 1.175 0 1.938 0.756 1.938 1.925 0 9.219 0 18.431 0 27.65 0 1.156-0.762 1.925-1.913 1.925-4.663 0-9.331 0-13.994 0zM16.063 1.188c-4.625 0-9.25 0-13.875 0-0.769 0-1.125 0.356-1.125 1.125 0 9.169 0 18.331 0 27.5 0 0.769 0.356 1.125 1.125 1.125 9.25 0 18.5 0 27.75 0 0.769 0 1.125-0.356 1.125-1.125 0-9.169 0-18.331 0-27.5 0-0.769-0.356-1.125-1.125-1.125-4.625 0-9.25 0-13.875 0z"></path>
<path d="M26.813 16.050c0 1.519-0.031 3.044 0.006 4.563 0.063 2.738-1.738 4.856-4 5.725-0.794 0.306-1.625 0.456-2.475 0.462-2.844 0.006-5.688 0.025-8.531-0.006-2.15-0.019-3.95-0.831-5.3-2.538-0.787-0.994-1.188-2.144-1.188-3.413-0.013-3.175-0.013-6.35 0-9.531 0.013-2.431 1.587-4.619 3.913-5.506 0.875-0.331 1.781-0.5 2.719-0.494 2.794 0 5.581-0.019 8.375 0.006 2.163 0.019 3.969 0.844 5.319 2.563 0.769 0.981 1.156 2.112 1.163 3.356 0.006 1.606 0 3.213 0 4.813zM25.219 16.063c0-1.575 0-3.144 0-4.719 0-0.838-0.225-1.613-0.7-2.294-1.019-1.45-2.456-2.112-4.194-2.125-2.831-0.013-5.662-0.006-8.5-0.006-0.9 0-1.762 0.188-2.544 0.638-1.481 0.85-2.338 2.087-2.338 3.844 0 3.125 0 6.25 0 9.375 0 1.069 0.362 2 1.088 2.781 1.025 1.113 2.325 1.625 3.819 1.631 2.737 0.012 5.475 0.012 8.219-0.006 0.569-0.006 1.15-0.056 1.694-0.2 1.969-0.512 3.506-2.181 3.469-4.363-0.038-1.512-0.012-3.031-0.012-4.556z"></path>
<path d="M16.1 20.637c-2.813 0-5.044-2.206-5.044-4.981 0-2.738 2.256-4.963 5.037-4.969 2.794 0 5.050 2.225 5.044 4.988-0.006 2.756-2.244 4.956-5.037 4.963zM19.531 15.675c0.006-1.869-1.538-3.394-3.431-3.394s-3.444 1.519-3.444 3.387c0 1.856 1.531 3.369 3.419 3.381 1.9 0.012 3.45-1.5 3.456-3.375z"></path>
<path d="M22.775 10.319c-0.019 0.606-0.494 1.075-1.081 1.056-0.587-0.012-1.063-0.537-1.038-1.137s0.506-1.069 1.087-1.056c0.606 0.012 1.050 0.506 1.031 1.137z"></path>
</symbol>
<symbol id="icon-youtube-sq" viewBox="0 0 32 32">
<path d="M16.075 0.313c4.631 0 9.269 0 13.9 0 1.212 0 1.962 0.75 1.962 1.969 0 9.188 0 18.369 0 27.556 0 1.238-0.744 1.975-1.981 1.975-9.269 0-18.538 0-27.806 0-1.219 0-1.962-0.75-1.962-1.969 0-9.188 0-18.369 0-27.556 0-1.238 0.744-1.975 1.981-1.975 4.638 0 9.269 0 13.906 0zM16.031 30.938c4.637 0 9.269 0 13.906 0 0.769 0 1.125-0.356 1.125-1.125 0-9.169 0-18.331 0-27.5 0-0.769-0.356-1.125-1.125-1.125-9.25 0-18.5 0-27.75 0-0.769 0-1.125 0.356-1.125 1.125 0 9.169 0 18.331 0 27.5 0 0.769 0.356 1.125 1.125 1.125 4.612 0 9.231 0 13.844 0z"></path>
<path d="M16.119 8.956c2.225 0.081 4.444 0.144 6.656 0.238 1.519 0.069 2.406 0.856 2.65 2.4 0.144 0.9 0.219 1.819 0.25 2.731 0.056 1.719 0.050 3.438-0.169 5.144-0.087 0.688-0.25 1.356-0.694 1.913-0.556 0.688-1.337 0.875-2.175 0.919-3.525 0.194-7.056 0.244-10.581 0.1-1.031-0.044-2.056-0.1-3.081-0.212-0.994-0.106-1.675-0.663-2.006-1.631-0.294-0.85-0.331-1.731-0.388-2.613-0.112-1.956-0.1-3.912 0.125-5.863 0.056-0.506 0.206-1.025 0.412-1.494 0.431-1 1.313-1.35 2.325-1.394 2.231-0.094 4.456-0.162 6.675-0.238zM14.137 18.225c1.738-0.9 3.425-1.775 5.162-2.675-1.756-0.919-3.444-1.794-5.162-2.694 0 1.8 0 3.556 0 5.369z"></path>
</symbol>
<symbol id="icon-arrow" viewBox="0 0 32 32">
<path d="M15 29.333v-22.867l-6.933 6.933-1.4-1.4 9.333-9.333 9.333 9.333-1.4 1.4-6.933-6.933v22.867h-2z"></path>
</symbol>
<symbol id="icon-diamond" viewBox="0 0 32 32">
<path d="M16 28l-13.333-16 4-8h18.667l4 8-13.333 16zM12.267 11h7.467l-2.5-5h-2.467l-2.5 5zM15 23.7v-10.7h-8.9l8.9 10.7zM17 23.7l8.9-10.7h-8.9v10.7zM21.967 11h4.533l-2.5-5h-4.533l2.5 5zM5.5 11h4.533l2.5-5h-4.533l-2.5 5z"></path>
</symbol>
<symbol id="icon-down" viewBox="0 0 32 32">
<path d="M16 20.5l-8-8 1.433-1.433 6.567 6.6 6.567-6.567 1.433 1.433-8 7.967z"></path>
</symbol>
<symbol id="icon-user" viewBox="0 0 32 32">
<path d="M16 15.967q-2.2 0-3.6-1.4t-1.4-3.6 1.4-3.6 3.6-1.4 3.6 1.4 1.4 3.6-1.4 3.6-3.6 1.4zM5.333 26.667v-3.133q0-1.267 0.633-2.167t1.633-1.367q2.233-1 4.283-1.5t4.117-0.5 4.1 0.517 4.264 1.49q1.043 0.471 1.673 1.366t0.63 2.161v3.133h-21.333zM7.333 24.667h17.333v-1.133q0-0.533-0.317-1.017t-0.783-0.717q-2.133-1.033-3.9-1.417t-3.667-0.383-3.7 0.383-3.9 1.417q-0.467 0.233-0.767 0.717t-0.3 1.017v1.133zM16 13.967q1.3 0 2.15-0.85t0.85-2.15-0.85-2.15-2.15-0.85-2.15 0.85-0.85 2.15 0.85 2.15 2.15 0.85z"></path>
</symbol>
<symbol id="icon-notifications" viewBox="0 0 32 32">
<path d="M5.333 25.333v-2h2.667v-10.133q0-2.8 1.65-5.017t4.35-2.783v-0.733q0-0.833 0.583-1.417t1.417-0.583 1.417 0.583 0.583 1.417v0.733q2.7 0.567 4.35 2.783t1.65 5.017v10.133h2.667v2h-21.333zM16 29.333q-1.1 0-1.883-0.783t-0.783-1.883h5.333q0 1.1-0.783 1.883t-1.883 0.783zM10 23.333h12v-10.133q0-2.5-1.75-4.25t-4.25-1.75-4.25 1.75-1.75 4.25v10.133z"></path>
</symbol>
<symbol id="icon-cloudy" viewBox="0 0 32 32">
<path d="M15 6.333v-5h2v5h-2zM23.533 9.867l-1.4-1.433 3.533-3.533 1.4 1.433-3.533 3.533zM25.667 17v-2h5v2h-5zM25.7 27.067l-3.533-3.533 1.433-1.433 3.533 3.533-1.433 1.433zM8.467 9.867l-3.533-3.533 1.4-1.4 3.533 3.533-1.4 1.4zM8 26h6q1.111 0 1.889-0.776t0.778-1.883-0.759-1.908-1.875-0.8h-1.467l-0.6-1.367q-0.505-1.192-1.587-1.896t-2.38-0.704q-1.944 0-3.306 1.359t-1.361 3.3 1.361 3.308 3.306 1.367zM8 28q-2.767 0-4.717-1.95t-1.95-4.717 1.95-4.717 4.717-1.95q1.925 0 3.512 1.083t2.354 2.883q2.004 0 3.369 1.453t1.365 3.48q-0.167 1.867-1.468 3.15t-3.132 1.283h-6zM18.6 23.567q-0.1-0.513-0.2-1t-0.2-1q1.733-0.667 2.767-2.185t1.033-3.377q0-2.505-1.75-4.255t-4.25-1.75q-2.241 0-3.921 1.422t-1.979 3.611q-0.533-0.1-1.050-0.183t-1.050-0.183q0.467-2.933 2.75-4.8t5.25-1.867q3.333 0 5.667 2.333t2.333 5.678q0 2.589-1.483 4.655t-3.917 2.9z"></path>
</symbol>
<symbol id="icon-menu" viewBox="0 0 32 32">
<path d="M4 24v-2h24v2h-24zM4 17v-2h24v2h-24zM4 10v-2h24v2h-24z"></path>
</symbol>
<symbol id="icon-search" viewBox="0 0 32 32">
<path d="M26.533 27.967l-8.767-8.767q-1 0.867-2.332 1.35t-2.835 0.483q-3.605 0-6.103-2.5t-2.497-6.033 2.5-6.033 6.050-2.5 6.033 2.5 2.483 6.038q0 1.428-0.467 2.762t-1.4 2.5l8.8 8.733-1.467 1.467zM12.567 19.033q2.708 0 4.604-1.917t1.896-4.617-1.896-4.617-4.604-1.917q-2.736 0-4.651 1.917t-1.915 4.617 1.915 4.617 4.651 1.917z"></path>
</symbol>
<symbol id="icon-youtube-play" viewBox="0 0 32 32">
<path d="M15.617 5.76c-4.225 0-8.193 0.32-10.305 0.768-1.407 0.32-2.625 1.28-2.88 2.752-0.255 1.535-0.512 3.84-0.512 6.72s0.255 5.12 0.575 6.72c0.257 1.407 1.473 2.433 2.88 2.753 2.242 0.448 6.080 0.767 10.305 0.767s8.063-0.32 10.303-0.767c1.41-0.32 2.625-1.28 2.88-2.753 0.258-1.6 0.578-3.902 0.64-6.782 0-2.88-0.32-5.185-0.64-6.785-0.255-1.407-1.47-2.433-2.88-2.752-2.24-0.32-6.142-0.64-10.365-0.64zM15.617 7.040c4.608 0 8.318 0.383 10.11 0.702 0.96 0.258 1.727 0.898 1.855 1.73 0.385 2.047 0.64 4.225 0.64 6.465-0.063 2.75-0.383 4.99-0.64 6.59-0.19 1.215-1.47 1.6-1.855 1.73-2.305 0.448-6.145 0.765-9.985 0.765s-7.742-0.255-9.982-0.765c-0.96-0.258-1.728-0.898-1.855-1.73-0.512-1.793-0.705-4.16-0.705-6.527 0-2.945 0.257-5.12 0.512-6.463 0.192-1.217 1.535-1.603 1.855-1.73 2.112-0.447 6.018-0.768 10.050-0.768zM12.16 10.88v10.24l8.96-5.12zM13.44 13.057l5.12 2.943-5.12 2.942z"></path>
</symbol>
<symbol id="icon-instagram" viewBox="0 0 32 32">
<path d="M10.24 1.92c-4.587 0-8.32 3.733-8.32 8.32v11.52c0 4.587 3.733 8.32 8.32 8.32h11.52c4.587 0 8.32-3.733 8.32-8.32v-11.52c0-4.587-3.733-8.32-8.32-8.32h-11.52zM10.24 3.2h11.52c3.895 0 7.040 3.145 7.040 7.040v11.52c0 3.895-3.145 7.040-7.040 7.040h-11.52c-3.895 0-7.040-3.145-7.040-7.040v-11.52c0-3.895 3.145-7.040 7.040-7.040zM23.68 7.040c-0.707 0-1.28 0.573-1.28 1.28v0c0 0.707 0.573 1.28 1.28 1.28v0c0.707 0 1.28-0.573 1.28-1.28v0c0-0.707-0.573-1.28-1.28-1.28v0zM16 8.96c-3.88 0-7.040 3.159-7.040 7.040s3.159 7.040 7.040 7.040c3.881 0 7.040-3.16 7.040-7.040s-3.16-7.040-7.040-7.040zM16 10.24c3.189 0 5.76 2.571 5.76 5.76s-2.571 5.76-5.76 5.76c-3.189 0-5.76-2.571-5.76-5.76s2.571-5.76 5.76-5.76z"></path>
</symbol>
<symbol id="icon-facebook" viewBox="0 0 32 32">
<path d="M5.76 2.56c-1.76 0-3.2 1.44-3.2 3.2v20.48c0 1.76 1.44 3.2 3.2 3.2h10.772c0.031 0.005 0.067 0.009 0.104 0.009s0.073-0.003 0.108-0.009l-0.004 0.001h3.631c0.031 0.005 0.067 0.009 0.104 0.009s0.073-0.003 0.108-0.009l-0.004 0.001h5.659c1.76 0 3.2-1.44 3.2-3.2v-20.48c0-1.76-1.44-3.2-3.2-3.2h-20.48zM5.76 3.84h20.48c1.068 0 1.92 0.852 1.92 1.92v20.48c0 1.068-0.852 1.92-1.92 1.92h-5.12v-8.96h2.445l0.896-4.48h-3.341v-1.28c0-0.357 0.034-0.385 0.154-0.463s0.49-0.178 1.126-0.178h1.92v-3.604l-0.365-0.174c0 0-1.47-0.703-3.475-0.703-1.44 0-2.623 0.574-3.38 1.52s-1.1 2.213-1.1 3.6v1.28h-1.92v4.48h1.92v8.96h-10.24c-1.068 0-1.92-0.852-1.92-1.92v-20.48c0-1.068 0.852-1.92 1.92-1.92zM20.48 9.6c1.331 0 2.168 0.293 2.56 0.449v1.471h-0.64c-0.737 0-1.327 0.061-1.824 0.384s-0.736 0.936-0.736 1.536v2.56h3.059l-0.384 1.92h-2.675v10.24h-2.56v-10.24h-1.92v-1.92h1.92v-2.56c0-1.173 0.297-2.146 0.82-2.8s1.26-1.040 2.38-1.040z"></path>
</symbol>
<symbol id="icon-twitter" viewBox="0 0 32 32">
<path d="M21.9 3.5c-3.828 0-6.94 3.112-6.94 6.94 0 0.23 0.057 0.455 0.080 0.68-4.732-0.453-8.918-2.732-11.76-6.22-0.132-0.168-0.337-0.258-0.553-0.242-0.212 0.015-0.402 0.138-0.507 0.322-0.598 1.027-0.94 2.21-0.94 3.48 0 1.537 0.55 2.945 1.4 4.1-0.165-0.072-0.345-0.113-0.5-0.2-0.198-0.105-0.435-0.1-0.627 0.015s-0.31 0.322-0.313 0.545v0.080c0 2.357 1.22 4.405 3.020 5.66-0.020-0.003-0.040 0.005-0.060 0-0.22-0.038-0.442 0.040-0.59 0.207s-0.195 0.4-0.13 0.613c0.715 2.223 2.54 3.92 4.8 4.54-1.8 1.070-3.888 1.7-6.14 1.7-0.488 0-0.955-0.025-1.42-0.080-0.3-0.040-0.588 0.135-0.688 0.42-0.102 0.285 0.010 0.602 0.268 0.76 2.888 1.852 6.315 2.94 10 2.94 5.973 0 10.657-2.495 13.8-6.060s4.78-8.195 4.78-12.52c0-0.182-0.015-0.36-0.020-0.54 1.172-0.898 2.22-1.95 3.040-3.18 0.163-0.237 0.145-0.555-0.043-0.775-0.185-0.22-0.497-0.287-0.758-0.165-0.33 0.147-0.715 0.162-1.060 0.28 0.455-0.607 0.845-1.263 1.080-2 0.080-0.253-0.008-0.53-0.215-0.695-0.207-0.163-0.497-0.183-0.725-0.045-1.093 0.647-2.302 1.103-3.58 1.38-1.24-1.16-2.872-1.94-4.7-1.94zM21.9 4.78c1.633 0 3.108 0.697 4.14 1.8 0.155 0.16 0.383 0.228 0.6 0.18 0.835-0.165 1.628-0.407 2.4-0.72-0.445 0.6-0.995 1.112-1.64 1.5-0.293 0.143-0.43 0.48-0.323 0.788 0.105 0.305 0.425 0.482 0.742 0.412 0.64-0.078 1.21-0.338 1.82-0.5-0.547 0.592-1.148 1.127-1.8 1.6-0.177 0.13-0.275 0.34-0.26 0.56 0.010 0.26 0.020 0.518 0.020 0.78 0 4-1.535 8.343-4.46 11.66s-7.22 5.64-12.84 5.64c-2.553 0-4.963-0.565-7.14-1.56 2.7-0.207 5.19-1.163 7.2-2.74 0.21-0.168 0.293-0.448 0.207-0.703s-0.32-0.43-0.588-0.438c-2.11-0.038-3.877-1.265-4.82-3 0.035 0 0.065 0 0.1 0 0.633 0 1.258-0.080 1.84-0.24 0.28-0.082 0.473-0.343 0.463-0.635s-0.218-0.543-0.502-0.605c-2.277-0.46-3.985-2.315-4.38-4.62 0.645 0.223 1.305 0.398 2.020 0.42 0.293 0.018 0.558-0.165 0.647-0.443s-0.020-0.582-0.268-0.738c-1.52-1.018-2.52-2.75-2.52-4.72 0-0.73 0.19-1.4 0.44-2.040 3.2 3.513 7.68 5.845 12.74 6.1 0.2 0.010 0.395-0.072 0.525-0.225 0.13-0.155 0.18-0.36 0.135-0.555-0.098-0.415-0.16-0.855-0.16-1.3 0-3.135 2.525-5.66 5.66-5.66z"></path>
</symbol>
<symbol id="icon-twitter-X" viewBox="0 0 44 32">
<path d="M8.813 3.728l10.125 13.538-10.189 11.007h2.293l8.92-9.637 7.207 9.637h7.804l-10.695-14.3 9.484-10.245h-2.293l-8.215 8.875-6.638-8.875h-7.804zM12.185 5.417h3.585l15.831 21.166h-3.585l-15.831-21.166z"></path>
</symbol>
<symbol id="icon-rss" viewBox="0 0 32 32">
<path d="M7.267 28q-1.367 0-2.317-0.95t-0.95-2.317 0.95-2.317 2.317-0.95 2.317 0.95 0.95 2.317-0.95 2.317-2.317 0.95zM23.667 28q0-4.067-1.55-7.65t-4.217-6.25-6.25-4.217-7.65-1.55v-3q4.7 0 8.817 1.783t7.2 4.867 4.867 7.2 1.783 8.817h-3zM15.733 28q0-5.267-3.233-8.633t-8.5-3.367v-3q3.233 0 5.933 1.133t4.65 3.133 3.050 4.75 1.1 5.983h-3z"></path>
</symbol>
<symbol id="icon-mail" viewBox="0 0 32 32">
<path d="M4.667 26.667q-0.8 0-1.4-0.6t-0.6-1.4v-17.333q0-0.8 0.6-1.4t1.4-0.6h22.667q0.8 0 1.4 0.6t0.6 1.4v17.333q0 0.8-0.6 1.4t-1.4 0.6h-22.667zM16 16.6l-11.333-7.433v15.5h22.667v-15.5l-11.333 7.433zM16 14.6l11.2-7.267h-22.367l11.167 7.267zM4.667 9.167v0z"></path>
</symbol>
<symbol id="icon-smartphone" viewBox="0 0 32 32">
<path d="M8.667 30.667q-0.8 0-1.4-0.6t-0.6-1.4v-25.333q0-0.8 0.6-1.4t1.4-0.6h14.667q0.8 0 1.4 0.6t0.6 1.4v25.333q0 0.8-0.6 1.4t-1.4 0.6h-14.667zM8.667 27.667v1h14.667v-1h-14.667zM8.667 25.667h14.667v-19.333h-14.667v19.333zM8.667 4.333h14.667v-1h-14.667v1zM8.667 4.333v0zM8.667 27.667v0z"></path>
</symbol>
<symbol id="icon-tablet" viewBox="0 0 32 32">
<path d="M16.006 28.167q0.427 0 0.711-0.289t0.283-0.717-0.289-0.711-0.717-0.283-0.711 0.289-0.283 0.717 0.289 0.711 0.717 0.283zM6 30.667q-0.825 0-1.412-0.587t-0.588-1.413v-25.333q0-0.825 0.588-1.413t1.412-0.587h20q0.825 0 1.413 0.587t0.587 1.413v25.333q0 0.825-0.587 1.413t-1.413 0.587h-20zM6 25.667v3h20v-3h-20zM6 23.667h20v-17.333h-20v17.333zM6 4.333h20v-1h-20v1zM6 4.333v0zM6 25.667v0z"></path>
</symbol>
</defs>
</svg>
